<svg xmlns="http://www.w3.org/2000/svg" xmlns:xlink="http://www.w3.org/1999/xlink" viewBox="0 0 219.77 314.78">
    <defs>
        <linearGradient id="linear-gradient" x1="138.72" y1="337.39" x2="138.72" y2="22.61"
            gradientUnits="userSpaceOnUse">
            <stop offset="0" stop-color="#599d73" />
            <stop offset="0.5" stop-color="#81c68f" />
            <stop offset="1" stop-color="#a1e4a4" />
        </linearGradient>
    </defs>
    <path
        d="M160.19,337c-28.55-53.92-39.64-110.56-30.93-171l10.63,13.29,1-.21q.61-10.51,1.24-21l1-.17c.75,2.91,1.6,5.8,2.25,8.74,1.13,5.12,2.07,10.28,3.23,15.39a17.16,17.16,0,0,0,11.14,13c2,.76,3.89,1.61,5.88,2.26a64.77,64.77,0,0,1,19,9.78c3.26,2.46,6.65,5.14,11.55,4.62-1.37-8.62-2.6-17-4.08-25.41-1.06-6-2.13-12.07-3.74-18-3.93-14.34-12.77-24.67-26.27-31-10.08-4.72-20.42-8.35-33.05-7.55a23,23,0,0,1,13.72-5.17c9.65-.69,18.77,1.74,27.66,5.1,7.52,2.83,14.85,6.19,22.34,9.11s14.92,5.08,22.95,5c1.69,0,3.38-.18,5.69-.32-2-5.72-3.79-10.92-5.89-17a31.62,31.62,0,0,1,12.17,10.35c.67.89.22,3-.28,4.33a70.14,70.14,0,0,1-13.59,22.28c-1,1.17-3.39,3.77-3.39,3.77s2.06,1.89,3.13,2.66c19.83,14.39,30.88,33.92,33.94,58.07,2.32,18.32,1.46,36.43-5.38,53.76-12.11,30.7-34.57,48.89-67.26,54.21-3.45.57-6.95.83-10.43,1.14C163,337.06,161.6,337,160.19,337Zm-131-.28a4.91,4.91,0,0,0,1.53.6q36.51.11,73,.12c1.91,0,3.82-.2,5.73-.33a.81.81,0,0,0,.44-.26,4.34,4.34,0,0,0,.37-.67c-1.08-7.58-2.33-15.33-3.27-23.12-2-16.67-4.13-33.34-5.67-50.05a353.86,353.86,0,0,1,.1-63.45c1.11-12.7,3-25.36,5.24-37.9,1.32-7.29,4.13-14.31,6.5-22.22a43.7,43.7,0,0,0-4.8,3.66c-4.3,4.36-8.5,8.81-12.67,13.29-3,3.2-5.77,6.58-8.81,9.71-1.24,1.28-2.51,3.1-5.32,2.07V161c-1.49.76-2.42,1.2-3.31,1.7-5,2.79-10.07,5.64-15.14,8.4a42.12,42.12,0,0,1-25.32,5.11c-2.74-.3-5.51-.3-8.61-.45ZM232.53,96.35C229.24,65.56,213.87,43.4,185.19,31c-14-6.05-28.91-8.29-44.07-8.34-35.73-.13-71.47,0-107.2,0-1.52,0-3.05.17-4.86.28-.08,1.65-.21,3-.21,4.38q0,20.24,0,40.45c0,9-.13,9.41,8.37,12.21C47.32,83.31,57.63,86.1,68,88.74c13.09,3.35,26,7.11,37.48,14.53.17.12.59-.14,1.36-.36-12-13-27.91-18.64-45-24.31L74.33,71c-16.68-3.81-32-8.53-40.28-25.57C44,48.94,53.59,48.77,63.19,49c15.35.33,29.07,5.45,41.56,14.23,11.26,7.91,17.62,18.7,19.67,32.19a37.29,37.29,0,0,0,1,3.74c6.24-18.86,18.1-32.17,36.41-39.3s36-7.15,53.82,4.63c-6.37,1.26-11.69,2.1-16.89,3.41s-10.62,2.84-15.94,6.21c4.52,2,9.36,2.15,12.23,6.35-6.46,4.1-15.31,5.39-14.44,15.63-6.89-.25-13.51-.49-20,1.93,25.09-2,49,2,72.65,14C233,106.06,233,101.17,232.53,96.35ZM30.08,172.21c2.21-2.2,4.54-4.31,6.61-6.64,4.54-5.1,8.92-10.34,13.42-15.47,5.32-6.07,10.83-11.93,17.62-16.43,11-7.26,22.61-10,35.4-5.56,1.81.63,3.66,1.16,5.49,1.76a13.77,13.77,0,0,0,1.47.55,16,16,0,0,0,2.23,0,47.43,47.43,0,0,0-29.61-5.56c-8.84,1.17-17.75,2.23-26.69.78-2.8-.46-5.63-.8-8.3-2.63,4.13-3.55,9.59-3.88,13.91-8.13-12.24-.08-22.87-2.19-32.54-8.91v65.78Z"
        fill="url(#linear-gradient)" transform="translate(-28.84 -22.61)" />
</svg>
